<svg aria-hidden="true" style="position:absolute;width:0;height:0;overflow:hidden" xmlns="http://www.w3.org/2000/svg">
  <defs>
    <symbol id="sets" viewBox="0 0 32 32">
      <path d="M9.592 2.051c-4.516.49-8.017 3.776-8.537 8.013-.163 1.328.026 2.027.727 2.68a2.676 2.676 0 0 0 2.44.663l.328-.072.073.333c.271 1.243 1.369 2.428 2.702 2.918.728.268.43.259 8.675.259 8.37 0 7.99.012 8.764-.287 1.282-.496 2.344-1.674 2.616-2.902l.071-.321.327.072c1.435.315 2.872-.556 3.173-1.923.134-.61-.015-1.951-.33-2.968-1.08-3.485-4.376-6.077-8.218-6.462-.702-.07-12.165-.073-12.811-.003Zm2.012 2.396v.813l-.953.03c-1.38.044-2.29.295-3.316.915-1.631.985-2.682 2.655-2.804 4.455-.045.669-.155.911-.488 1.07-.306.145-.554.138-.85-.024-.379-.207-.468-.446-.42-1.13.094-1.336.548-2.58 1.357-3.714.16-.226.582-.685.937-1.02a7.857 7.857 0 0 1 4.104-2.067c.629-.112.753-.121 1.656-.132l.777-.008v.812Zm7.035 4.986v5.798h-5.276V3.635h5.276v5.798Zm4.219-5.664a8.937 8.937 0 0 1 2.932 1.15c.566.35 1.707 1.415 2.082 1.943.814 1.145 1.269 2.397 1.356 3.735.034.506.025.584-.09.792a.933.933 0 0 1-.776.45c-.286 0-.658-.23-.769-.475-.052-.114-.11-.445-.128-.735-.089-1.362-.74-2.687-1.808-3.678-1.229-1.14-2.694-1.675-4.59-1.675h-.67V3.619l1.011.033c.556.019 1.209.071 1.45.117Zm-11.254 7.305v4.157H10.14c-.868 0-1.588-.025-1.773-.062-1.007-.201-1.817-.957-2.032-1.896-.104-.454-.086-2.552.026-3.063.18-.82.586-1.512 1.234-2.103.911-.832 1.87-1.177 3.29-1.186l.718-.004v4.157Zm10.598-4.07c1.729.333 3.08 1.593 3.436 3.206.112.506.132 2.604.029 3.063-.157.696-.699 1.354-1.379 1.673-.532.25-.83.285-2.428.285h-1.463V6.917h.677c.39 0 .867.036 1.128.087ZM8.057 18.569a6.544 6.544 0 0 0-3.433 1.636A5.802 5.802 0 0 0 2.98 22.92c-.188.67-.192 2.021-.008 2.651.324 1.11.86 1.998 1.652 2.737.792.739 1.744 1.239 2.933 1.541.675.172 2.122.168 2.841-.007 2.3-.56 3.919-2.076 4.562-4.271.175-.595.175-2.034 0-2.629-.329-1.123-.864-2.004-1.672-2.754-.8-.742-1.745-1.241-2.857-1.507-.57-.137-1.8-.194-2.374-.112Zm12.311.035c-1.699.34-3.046 1.61-3.395 3.202-.136.617-.136 4.288 0 4.9.356 1.606 1.716 2.875 3.436 3.207.366.07.866.087 2.626.087 2.729 0 3.085-.055 4.074-.628a4.356 4.356 0 0 0 1.945-2.429c.149-.47.187-4.471.048-5.11-.354-1.632-1.7-2.897-3.442-3.233-.635-.123-4.674-.12-5.292.004ZM9.827 20.24a4.37 4.37 0 0 1 2.241 1.136c.576.544.946 1.139 1.16 1.863.136.458.136 1.577 0 2.035-.453 1.53-1.758 2.682-3.395 2.998-3.042.586-5.795-1.982-5.171-4.825.486-2.21 2.819-3.66 5.165-3.207Zm15.506-.025c1.004.197 1.816.955 2.032 1.897.09.389.09 3.893.002 4.289-.094.419-.432.986-.755 1.268a3.03 3.03 0 0 1-1.279.628c-.422.084-4.176.084-4.596 0-1.007-.201-1.816-.957-2.032-1.896-.09-.39-.09-3.894-.001-4.289.107-.473.338-.866.722-1.222a2.553 2.553 0 0 1 1.235-.658c.388-.09 4.226-.105 4.672-.017Zm-16.748.986c-.183.093-2.782 2.518-2.876 2.683-.1.176-.11.55-.02.718.093.17 2.688 2.6 2.878 2.694.087.043.267.078.399.078s.312-.035.399-.078c.19-.094 2.785-2.524 2.878-2.694.09-.167.08-.542-.02-.718-.1-.177-2.704-2.599-2.887-2.685-.162-.077-.598-.075-.751.002Zm13.834.672a2.554 2.554 0 0 0-1.235.658c-1.04.967-1.04 2.48.002 3.451 1.515 1.413 4.076.643 4.44-1.335.142-.775-.126-1.54-.742-2.117a2.69 2.69 0 0 0-2.465-.657Zm-12.808 1.81.614.574-.63.587-.629.588-.63-.587-.629-.588.614-.575c.337-.316.628-.574.645-.574.017 0 .308.258.645.575Zm13.836-.137c.26.124.467.44.467.71 0 .419-.433.821-.883.821-.273 0-.635-.213-.764-.449-.216-.396-.08-.828.334-1.062.28-.159.542-.165.846-.02Z"/>
    </symbol>
    <symbol id="rols" viewBox="0 0 32 32">
      <path d="M6.624 3.043C3.374 3.396.895 4.826.17 6.767l-.146.391-.018 4.278c-.015 3.573-.003 4.347.073 4.7.485 2.239 3.404 3.92 7.181 4.138l.733.042v2.532c.002 2.744.028 3.029.343 3.669.635 1.292 2.2 2.378 4.256 2.953 1.156.324 1.873.41 3.4.41 1.528 0 2.246-.086 3.401-.41 2.056-.575 3.621-1.661 4.256-2.953.315-.64.342-.925.343-3.669l.001-2.532.732-.042c3.76-.216 6.689-1.895 7.178-4.115.13-.588.13-8.453 0-9.04-.422-1.915-2.599-3.41-5.785-3.973-1.037-.183-3.212-.183-4.25 0-3.154.558-5.41 2.094-5.772 3.934-.038.192-.084.349-.103.349-.019 0-.065-.157-.103-.349-.364-1.84-2.658-3.403-5.772-3.928-.836-.141-2.671-.199-3.494-.11ZM9.836 5.05c2.367.404 4.151 1.582 4.151 2.74 0 .927-1.128 1.878-2.882 2.43-1.047.33-1.72.42-3.112.42-1.392 0-2.066-.09-3.113-.42-2.07-.65-3.193-1.803-2.797-2.87.438-1.181 2.343-2.117 4.91-2.411.459-.053 2.305.02 2.843.111Zm16 0c2.367.404 4.152 1.582 4.152 2.74 0 .927-1.128 1.878-2.883 2.43-1.046.33-1.72.42-3.112.42-1.391 0-2.066-.09-3.112-.42-2.07-.65-3.193-1.803-2.798-2.87.438-1.181 2.344-2.117 4.91-2.411.46-.053 2.306.02 2.844.111ZM7.517 6.977c-.339.195-.484.487-.448.9.015.176.08.381.148.472.148.197.565.403.812.401.302-.002.682-.205.837-.446.308-.479.115-1.138-.398-1.362-.35-.153-.644-.142-.951.035Zm16 0c-.338.195-.483.487-.448.9.015.176.08.381.148.472.148.197.566.403.813.401.301-.002.682-.205.837-.446.307-.479.115-1.138-.398-1.362-.35-.153-.644-.142-.952.035ZM3.211 11.641c1.367.61 3.112.96 4.782.96 2.056 0 4.253-.548 5.64-1.406l.36-.222v1.789l-.541.102c-1.86.352-3.685 1.276-4.56 2.31-.36.426-.686 1.045-.805 1.53-.052.21-.093.668-.093 1.032l-.001.656-.662-.041c-2.59-.162-4.785-1.175-5.248-2.425-.066-.177-.086-.76-.088-2.59l-.003-2.363.36.222c.197.123.584.323.86.446Zm16 0c1.368.61 3.113.96 4.782.96 2.057 0 4.254-.548 5.64-1.406l.36-.222-.002 2.362c-.003 1.831-.022 2.414-.088 2.591-.463 1.25-2.658 2.263-5.249 2.425l-.66.04-.002-.655c0-.364-.042-.822-.093-1.031-.119-.486-.445-1.105-.806-1.532-.875-1.033-2.7-1.957-4.56-2.309l-.54-.102v-1.789l.36.222c.197.123.584.323.859.446Zm-1.374 3.032c2.366.403 4.15 1.58 4.15 2.739 0 .927-1.127 1.879-2.882 2.43-1.046.33-1.72.42-3.112.42-1.392 0-2.066-.09-3.113-.42-2.069-.65-3.192-1.803-2.797-2.87.438-1.18 2.344-2.117 4.91-2.411.46-.053 2.306.02 2.844.112Zm-2.28 1.913c-.368.187-.516.458-.487.889.027.4.167.61.52.778.315.15.546.151.878.006.34-.149.54-.46.54-.847a.89.89 0 0 0-.54-.848c-.341-.149-.587-.143-.912.022Zm-4.346 4.677c1.368.61 3.113.96 4.782.96 2.057 0 4.253-.547 5.64-1.405l.36-.223-.003 2.363c-.002 1.83-.021 2.413-.087 2.59-.378 1.019-2.015 1.946-4.066 2.304-.875.152-2.814.152-3.688 0-2.051-.358-3.689-1.285-4.066-2.303-.066-.178-.085-.76-.088-2.591l-.002-2.363.359.223c.198.122.584.322.86.445Z"></path>
    </symbol>
    <symbol id="baked-rols" viewBox="0 0 32 32">
      <path d="M12.142.038C6.526.574 2.129 3.07.744 6.51c-.23.57-.39 1.24-.45 1.879a6.06 6.06 0 0 1-.18.97c-.106.354-.124.527-.103 1.025.021.512.052.665.216 1.055.22.524.216.643-.029 1.217-.136.317-.167.484-.187.997-.02.522-.004.67.102.969.344.971.33.877.183 1.218-.216.5-.295.866-.296 1.369 0 .52.088.889.35 1.447.095.202.172.417.172.476 0 .06-.091.318-.203.575-.562 1.291-.346 2.472.633 3.465.389.394.435.466.47.727.105.763.359 1.302.863 1.833.364.383.935.717 1.375.805.31.062.443.174.7.587.291.464.703.847 1.163 1.079.496.25.906.322 1.612.282.33-.019.66-.011.732.017.073.027.286.186.473.352.817.722 1.89.94 2.896.59.485-.168.64-.152 1.077.112.567.343.926.444 1.572.444.642 0 .995-.1 1.572-.446.436-.262.593-.278 1.077-.11 1.007.35 2.079.132 2.896-.59.187-.166.4-.325.473-.352.073-.028.402-.036.732-.017.373.02.725.007.932-.037.72-.151 1.423-.654 1.833-1.31.127-.203.268-.4.313-.437.045-.038.283-.134.53-.213a2.841 2.841 0 0 0 1.307-.824c.446-.476.66-.965.798-1.822.029-.18.12-.313.418-.616.711-.722.972-1.314.972-2.206 0-.555-.088-.916-.353-1.451-.178-.359-.173-.506.03-.913.399-.797.471-1.648.205-2.39-.295-.824-.294-.817-.146-1.16.244-.565.31-.915.284-1.511-.02-.446-.057-.635-.187-.94-.247-.576-.25-.734-.024-1.24.187-.417.194-.458.192-1.166-.001-.622-.021-.78-.13-1.044a1.764 1.764 0 0 1-.129-.624c0-.44-.148-1.182-.356-1.784-.664-1.92-2.242-3.579-4.582-4.815-1.758-.93-3.82-1.552-6.17-1.862-.84-.11-3.405-.16-4.23-.082Zm4.125 1.849c4.482.592 8.056 2.644 9.125 5.239.276.67.361 1.169.328 1.92-.075 1.692-1.07 3.21-2.91 4.44-1.802 1.205-3.937 1.958-6.572 2.318-1.05.143-3.637.144-4.706 0-3.676-.491-6.833-1.973-8.373-3.931-1.24-1.576-1.465-3.365-.636-5.058 1.281-2.618 5.21-4.63 9.799-5.018.872-.073 3.092-.023 3.945.09Zm-3.253 2.236c-3.089.231-5.503 1.409-6.377 3.11-.98 1.91-.209 3.847 2.048 5.143.947.544 2.248.958 3.553 1.13.853.114 2.441.114 3.294 0 3.186-.421 5.586-2.057 5.968-4.068.307-1.613-.708-3.293-2.558-4.236-.898-.457-2.01-.793-3.198-.966-.629-.091-2.166-.155-2.73-.113Zm.15 1.975c-.242.415-.498 1.094-.646 1.709a8.401 8.401 0 0 1-.156.593c-.01.008-.2.073-.423.146-.912.295-1.85.864-2.59 1.569l-.395.376-.342-.345c-.41-.415-.61-.805-.643-1.256-.086-1.213 1.575-2.422 3.94-2.866.7-.131.873-.156 1.18-.168l.22-.01-.146.252Zm3.136.01c1.435.35 2.587.99 3.133 1.74.572.785.482 1.533-.274 2.297l-.342.345-.44-.415c-1.032-.975-2.296-1.593-3.628-1.777l-.523-.072.035-.189c.092-.498.553-1.39.959-1.857.226-.26.294-.265 1.08-.072Zm-.963 4.135c.613.209 1.178.522 1.565.87l.255.229-.43.129c-.91.273-1.397.33-2.842.33-1.442 0-1.932-.058-2.834-.328l-.423-.127.132-.143c.23-.247.913-.671 1.373-.852.712-.28 1.06-.337 1.897-.315.667.017.82.041 1.307.207ZM2.334 13.557c2.154 2.14 5.171 3.486 8.995 4.01 1.12.153 3.993.153 5.112 0 3.797-.522 6.856-1.882 8.962-3.983.253-.253.468-.459.478-.459.01 0 .048.083.083.185.104.303.076.713-.074 1.055-.324.739-.334 1.393-.032 2.154.224.569.222.869-.012 1.36-.433.914-.446 1.61-.045 2.417.364.732.292 1.11-.333 1.747-.51.517-.744.954-.854 1.589-.043.242-.122.526-.176.632-.126.243-.497.517-.77.568-.614.117-1.268.606-1.677 1.256-.116.183-.306.4-.422.48-.2.138-.25.145-1.086.146-1.015.002-1.323.089-1.839.517-.835.694-.954.726-1.747.48-.443-.137-.595-.157-1.01-.135-.46.024-.533.047-1.157.367-.592.303-.695.338-.926.312a1.514 1.514 0 0 1-.482-.156c-.722-.41-.967-.498-1.45-.524-.403-.021-.56 0-.999.136-.793.246-.912.214-1.747-.48-.512-.425-.823-.512-1.84-.515-.834-.003-.885-.01-1.086-.149-.115-.08-.305-.296-.42-.48-.232-.366-.724-.864-.99-1.003a4.732 4.732 0 0 0-.575-.215c-.707-.22-.948-.504-1.073-1.267-.099-.602-.336-1.043-.84-1.557-.627-.642-.698-1.018-.329-1.756.376-.753.368-1.527-.026-2.356-.255-.537-.27-.886-.061-1.364.324-.741.324-1.451 0-2.192-.156-.354-.186-.76-.08-1.067a.754.754 0 0 1 .079-.185c.008 0 .21.194.45.432Zm19.858 5.546c-.23.124-.461.488-.463.73-.003.623.637 1.063 1.21.831.307-.124.486-.375.516-.723a.85.85 0 0 0-1.263-.837Zm-14.49.976a.823.823 0 0 0-.562.62c-.062.234-.056.296.051.54.15.343.406.514.768.514.677 0 1.107-.748.74-1.291-.263-.391-.608-.524-.997-.383ZM4.938 21.21c-.198.035-.505.278-.61.485-.282.55.151 1.232.784 1.232.875 0 1.189-1.16.43-1.592a.902.902 0 0 0-.604-.125Zm16.252.747c-.296.104-.39.193-.52.489a.835.835 0 0 0 .759 1.185c.55 0 .851-.3.851-.85 0-.261-.03-.393-.116-.51a.851.851 0 0 0-.974-.314Zm-12.5 1.11a.858.858 0 0 0 .366 1.605c.365.032.636-.122.806-.456.16-.317.163-.478.014-.79-.135-.282-.467-.499-.763-.498a.993.993 0 0 0-.422.139Z"></path>
    </symbol>
    <symbol id="pizza" viewBox="0 0 32 32">
      <path d="M21.367 1.005c-.243.136-.402.335-.744.927a9.06 9.06 0 0 1-.368.61c-.01 0-.317-.13-.684-.29-1.836-.8-3.535-1.154-5.532-1.155-2.204-.002-4.2.466-6.156 1.444C3.71 4.628.813 8.666.145 13.334-.838 20.188 3.272 26.82 9.822 28.95c1.48.48 2.45.624 4.246.625 1.57.001 2.125-.062 3.406-.387 5.654-1.435 9.93-6.393 10.553-12.236l.071-.67h.598c.522 0 .62-.016.79-.133.309-.213.412-.403.48-.882.067-.486.03-1.92-.07-2.732-.59-4.734-3.258-8.827-7.354-11.284-.43-.258-.573-.314-.791-.312-.147 0-.32.031-.384.067ZM15.768 3.11c1.06.161 2.256.512 3.158.925.24.11.362.2.343.249-.016.042-1.35 2.396-2.964 5.23a716.817 716.817 0 0 0-3.061 5.407c-.226.45-.09.92.354 1.228l.194.133h6.206c5.87 0 6.205.006 6.204.104-.002.237-.177 1.33-.288 1.8-.557 2.366-1.7 4.37-3.485 6.112a12.047 12.047 0 0 1-5.43 3.05c-1.2.308-2.922.432-4.165.3-4.786-.508-8.838-3.827-10.345-8.474a12.352 12.352 0 0 1 .673-9.31c.644-1.304 1.272-2.187 2.287-3.22 2.12-2.158 4.795-3.404 7.828-3.648.495-.04 1.904.025 2.491.114Zm6.614.276c1.868 1.289 3.358 3.033 4.386 5.134.82 1.678 1.37 3.911 1.37 5.572v.287H15.706l.075-.14c.274-.509 6.29-11.042 6.306-11.042.011 0 .144.085.295.19Zm-8.57 1.538c-.373.113-.623.49-.623.938 0 1.077 1.54 1.245 1.815.197.12-.46-.189-1.01-.64-1.137-.242-.068-.322-.068-.553.002ZM9.881 6.83c-.714.105-1.477.598-1.88 1.214-.899 1.374-.489 3.21.9 4.033 1.401.83 3.197.29 3.91-1.178 1.006-2.07-.674-4.403-2.93-4.07Zm13.13 0c-.712.105-1.476.598-1.878 1.214-.899 1.374-.489 3.21.9 4.033 1.4.83 3.197.29 3.91-1.178 1.006-2.07-.675-4.403-2.931-4.07ZM10.815 8.839c.097.057.237.209.31.338.349.607-.108 1.394-.808 1.394-.68 0-1.137-.739-.831-1.346.143-.285.232-.366.523-.474a.954.954 0 0 1 .806.088Zm13.132 0c.097.057.236.209.31.338.348.607-.108 1.394-.808 1.394-.68 0-1.137-.739-.832-1.346.143-.285.233-.366.524-.474a.954.954 0 0 1 .806.088Zm-17.64 3.697c-.372.113-.622.49-.622.938 0 1.078 1.54 1.245 1.815.197.12-.46-.189-1.01-.64-1.137-.242-.068-.322-.068-.553.002Zm1.698 3.811c-.713.106-1.476.599-1.88 1.215-.898 1.373-.488 3.21.9 4.033a2.769 2.769 0 0 0 3.911-1.178c1.006-2.07-.674-4.404-2.93-4.07Zm.933 2.009c.097.057.237.208.31.337.349.608-.108 1.395-.808 1.395-.68 0-1.137-.74-.831-1.347.143-.285.232-.366.523-.473a.954.954 0 0 1 .806.088Zm8.447-.106c-.713.106-1.476.6-1.88 1.215-.898 1.373-.488 3.21.9 4.033 1.402.83 3.198.29 3.91-1.178 1.007-2.07-.673-4.403-2.93-4.07Zm5.806-.004c-.372.113-.623.49-.623.938 0 1.078 1.54 1.245 1.815.197.121-.46-.188-1.01-.64-1.137-.24-.068-.322-.068-.552.002Zm-4.873 2.013c.097.057.236.209.31.338.349.607-.108 1.394-.808 1.394-.68 0-1.137-.739-.832-1.346.144-.285.233-.366.524-.474a.954.954 0 0 1 .806.088Zm-6.383 1.794c-.372.113-.622.49-.622.938 0 1.077 1.54 1.245 1.814.197.121-.46-.188-1.01-.64-1.137-.24-.068-.321-.068-.552.002Z" clip-rule="evenodd"></path>
    </symbol>
    <symbol id="drink" viewBox="0 0 32 32">
      <path d="M17.677 1.852A1 1 0 0 1 18.666 1h4.746a1 1 0 1 1 0 2h-3.885l-.54 3.591h4.815a1 1 0 0 1 .992 1.127l-2.855 22.408a1 1 0 0 1-.992.874h-10.05a1 1 0 0 1-.993-.88L7.205 7.71a1 1 0 0 1 .993-1.119h8.767l.712-4.74Zm-1.012 6.74h-7.34l.79 6.56c.56-.043 1.312-.072 2.13-.028.852.046 1.81.173 2.71.469.209.068.417.147.623.237l1.087-7.239Zm-1.4 9.326-.364 2.426a1 1 0 1 0 1.978.297l.186-1.24c1.217.615 2.59.42 3.584.11.23-.072.449-.152.656-.236L20.067 29h-8.284l-1.428-11.86a14.605 14.605 0 0 1 1.781-.02c.749.041 1.518.15 2.195.373.354.116.667.258.934.425Zm6.343-1.02a7.523 7.523 0 0 1-1.555.702c-1.103.345-2.028.293-2.634-.434a3.188 3.188 0 0 0-.016-.02l1.285-8.555h3.979L21.608 16.9Zm.358-.224Z"></path>
    </symbol>
  </defs>
</svg>
